<?xml version="1.0" standalone="no"?><svg xmlns="http://www.w3.org/2000/svg" viewBox="0 0 1440 320"><path fill="#123F6D" fill-opacity="1" d="M0,160L40,165.3C80,171,160,181,240,197.3C320,213,400,235,480,229.3C560,224,640,192,720,165.3C800,139,880,117,960,96C1040,75,1120,53,1200,80C1280,107,1360,181,1400,218.7L1440,256L1440,320L1400,320C1360,320,1280,320,1200,320C1120,320,1040,320,960,320C880,320,800,320,720,320C640,320,560,320,480,320C400,320,320,320,240,320C160,320,80,320,40,320L0,320Z"></path></svg>